<?xml version="1.0" encoding="UTF-8"?>
<!DOCTYPE svg PUBLIC "-//W3C//DTD SVG 1.1//EN" "http://www.w3.org/Graphics/SVG/1.1/DTD/svg11.dtd">
<svg xmlns="http://www.w3.org/2000/svg" version="1.1" width="443px" height="332px" style="shape-rendering:geometricPrecision; text-rendering:geometricPrecision; image-rendering:optimizeQuality; fill-rule:evenodd; clip-rule:evenodd" xmlns:xlink="http://www.w3.org/1999/xlink">
<g><path style="opacity:0.507" fill="#4879fd" d="M 111.5,-0.5 C 115.833,-0.5 120.167,-0.5 124.5,-0.5C 125.806,8.43708 126.473,17.6037 126.5,27C 126.422,36.9537 125.756,46.787 124.5,56.5C 123.5,56.5 122.5,56.5 121.5,56.5C 121.5,57.5 121.5,58.5 121.5,59.5C 120.349,63.9902 117.683,67.3235 113.5,69.5C 112.678,71.1386 112.011,72.8053 111.5,74.5C 110.244,74.5386 109.244,74.0386 108.5,73C 110.192,49.0305 111.192,24.8638 111.5,0.5C 111.5,0.166667 111.5,-0.166667 111.5,-0.5 Z"/></g>
<g><path style="opacity:0.004" fill="#0000ff" d="M 205.5,-0.5 C 206.167,-0.5 206.833,-0.5 207.5,-0.5C 208.149,13.5409 207.482,27.2076 205.5,40.5C 205.5,26.8333 205.5,13.1667 205.5,-0.5 Z"/></g>
<g><path style="opacity:0.691" fill="#2e8bfd" d="M 246.5,-0.5 C 248.5,-0.5 250.5,-0.5 252.5,-0.5C 252.333,26.5021 252.5,53.5021 253,80.5C 253.278,79.5842 253.778,78.9175 254.5,78.5C 252.631,86.9089 249.631,94.9089 245.5,102.5C 243.794,72.2535 242.794,41.9202 242.5,11.5C 243.267,7.30188 244.6,3.30188 246.5,-0.5 Z"/></g>
<g><path style="opacity:0.784" fill="#2392fc" d="M 252.5,-0.5 C 256.5,-0.5 260.5,-0.5 264.5,-0.5C 264.333,16.5033 264.5,33.5033 265,50.5C 266.039,51.2438 266.539,52.2438 266.5,53.5C 262.993,60.5291 259.993,67.8625 257.5,75.5C 256.859,76.9935 255.859,77.9935 254.5,78.5C 253.778,78.9175 253.278,79.5842 253,80.5C 252.5,53.5021 252.333,26.5021 252.5,-0.5 Z"/></g>
<g><path style="opacity:0.883" fill="#179bfd" d="M 264.5,-0.5 C 271.833,-0.5 279.167,-0.5 286.5,-0.5C 286.549,2.37432 286.216,5.20765 285.5,8C 279.239,23.3058 272.906,38.4724 266.5,53.5C 266.539,52.2438 266.039,51.2438 265,50.5C 264.5,33.5033 264.333,16.5033 264.5,-0.5 Z"/></g>
<g><path style="opacity:0.337" fill="#5d70fe" d="M 124.5,-0.5 C 133.5,-0.5 142.5,-0.5 151.5,-0.5C 149.888,13.2364 148.888,27.0697 148.5,41C 154.742,42.3696 161.075,42.8696 167.5,42.5C 172.695,42.1795 177.695,42.5128 182.5,43.5C 167.496,43.3334 152.496,43.5001 137.5,44C 136.376,44.2492 135.376,44.7492 134.5,45.5C 130.143,50.2727 125.81,54.9393 121.5,59.5C 121.5,58.5 121.5,57.5 121.5,56.5C 122.5,56.5 123.5,56.5 124.5,56.5C 125.756,46.787 126.422,36.9537 126.5,27C 126.473,17.6037 125.806,8.43708 124.5,-0.5 Z"/></g>
<g><path style="opacity:0.263" fill="#6564ff" d="M 151.5,-0.5 C 159.167,-0.5 166.833,-0.5 174.5,-0.5C 174.389,0.117425 174.056,0.617425 173.5,1C 175.47,13.9189 176.137,27.0856 175.5,40.5C 173.193,40.9863 171.027,40.9863 169,40.5C 168.283,41.0442 167.783,41.7109 167.5,42.5C 161.075,42.8696 154.742,42.3696 148.5,41C 148.888,27.0697 149.888,13.2364 151.5,-0.5 Z"/></g>
<g><path style="opacity:0.153" fill="#775afe" d="M 174.5,-0.5 C 180.5,-0.5 186.5,-0.5 192.5,-0.5C 192.333,13.1707 192.5,26.8374 193,40.5C 194.135,40.727 195.302,41.0604 196.5,41.5C 194.389,42.8485 192.555,42.5152 191,40.5C 190.667,27.5 190.333,14.5 190,1.5C 190.125,15.0075 189.292,28.3408 187.5,41.5C 187.863,42.1835 188.196,42.8501 188.5,43.5C 186.5,43.5 184.5,43.5 182.5,43.5C 177.695,42.5128 172.695,42.1795 167.5,42.5C 167.783,41.7109 168.283,41.0442 169,40.5C 171.027,40.9863 173.193,40.9863 175.5,40.5C 176.137,27.0856 175.47,13.9189 173.5,1C 174.056,0.617425 174.389,0.117425 174.5,-0.5 Z"/></g>
<g><path style="opacity:0.082" fill="#7d50ff" d="M 192.5,-0.5 C 196.833,-0.5 201.167,-0.5 205.5,-0.5C 205.5,13.1667 205.5,26.8333 205.5,40.5C 204.848,41.7251 203.681,42.3917 202,42.5C 197.53,43.2637 193.03,43.597 188.5,43.5C 188.196,42.8501 187.863,42.1835 187.5,41.5C 189.292,28.3408 190.125,15.0075 190,1.5C 190.333,14.5 190.667,27.5 191,40.5C 192.555,42.5152 194.389,42.8485 196.5,41.5C 195.302,41.0604 194.135,40.727 193,40.5C 192.5,26.8374 192.333,13.1707 192.5,-0.5 Z"/></g>
<g><path style="opacity:0.595" fill="#3e81fd" d="M 111.5,0.5 C 111.192,24.8638 110.192,49.0305 108.5,73C 109.244,74.0386 110.244,74.5386 111.5,74.5C 104.338,83.3942 97.0044,92.0609 89.5,100.5C 88.3228,98.8974 88.4894,97.564 90,96.5C 90.1667,83.6667 90.3333,70.8333 90.5,58C 90.4992,44.8155 89.8325,31.9822 88.5,19.5C 92.5084,15.1517 96.175,10.4851 99.5,5.5C 103.182,2.92156 107.182,1.25489 111.5,0.5 Z"/></g>
<g><path style="opacity:0.614" fill="#3884fd" d="M 242.5,11.5 C 242.794,41.9202 243.794,72.2535 245.5,102.5C 242.262,112.23 238.262,121.564 233.5,130.5C 233.15,101.113 232.15,71.7801 230.5,42.5C 233.347,31.7165 237.347,21.3832 242.5,11.5 Z"/></g>
<g><path style="opacity:0.694" fill="#308afd" d="M 88.5,19.5 C 89.8325,31.9822 90.4992,44.8155 90.5,58C 90.3333,70.8333 90.1667,83.6667 90,96.5C 88.4894,97.564 88.3228,98.8974 89.5,100.5C 80.4692,112.602 71.4692,124.602 62.5,136.5C 62.4546,108.984 62.4546,80.9841 62.5,52.5C 71.4964,41.661 80.1631,30.661 88.5,19.5 Z"/></g>
<g><path style="opacity:0.586" fill="#3d80fd" d="M 314.5,34.5 C 312.166,35.1237 309.833,35.957 307.5,37C 309.473,37.4955 311.473,37.6621 313.5,37.5C 313.54,53.747 313.54,69.747 313.5,85.5C 310.752,83.2805 307.752,81.2805 304.5,79.5C 294.833,78.8333 285.167,78.1667 275.5,77.5C 281.404,64.0128 287.071,50.3462 292.5,36.5C 299.624,34.5838 306.957,33.9171 314.5,34.5 Z"/></g>
<g><path style="opacity:0.695" fill="#318afd" d="M 314.5,34.5 C 323.346,33.631 331.68,34.9643 339.5,38.5C 338.198,65.072 338.198,91.7387 339.5,118.5C 330.443,107.78 321.776,96.78 313.5,85.5C 313.54,69.747 313.54,53.747 313.5,37.5C 311.473,37.6621 309.473,37.4955 307.5,37C 309.833,35.957 312.166,35.1237 314.5,34.5 Z"/></g>
<g><path style="opacity:0.554" fill="#437efd" d="M 230.5,42.5 C 232.15,71.7801 233.15,101.113 233.5,130.5C 233.799,132.604 233.466,134.604 232.5,136.5C 228.432,143.179 225.432,150.179 223.5,157.5C 222.197,141.985 221.53,126.318 221.5,110.5C 221.504,95.2607 221.837,80.094 222.5,65C 221.212,64.7613 220.212,65.2613 219.5,66.5C 222.44,59.618 225.106,52.618 227.5,45.5C 228.141,44.0065 229.141,43.0065 230.5,42.5 Z"/></g>
<g><path style="opacity:0.004" fill="#0800ff" d="M 272.5,144.5 C 272.667,115.165 272.5,85.8314 272,56.5C 271.617,55.944 271.117,55.6107 270.5,55.5C 270.685,53.8042 271.519,52.4709 273,51.5C 273.831,82.6694 273.664,113.669 272.5,144.5 Z"/></g>
<g><path style="opacity:0.789" fill="#2492fc" d="M 339.5,38.5 C 350.315,48.6452 359.649,59.9785 367.5,72.5C 366.957,74.3431 367.624,76.0098 369.5,77.5C 368.17,102.363 368.17,127.196 369.5,152C 368.922,153.417 367.922,154.25 366.5,154.5C 357.864,142.202 348.864,130.202 339.5,118.5C 338.198,91.7387 338.198,65.072 339.5,38.5 Z"/></g>
<g><path style="opacity:0.799" fill="#2492fc" d="M 62.5,52.5 C 62.4546,80.9841 62.4546,108.984 62.5,136.5C 60.4373,142.694 60.104,149.028 61.5,155.5C 64.2184,160.234 66.8851,164.901 69.5,169.5C 68.5222,169.811 67.8555,170.478 67.5,171.5C 68.8142,184.011 69.4809,196.678 69.5,209.5C 69.4728,222.864 69.1395,236.197 68.5,249.5C 63.2536,245.065 58.9202,239.732 55.5,233.5C 51.6736,228.716 47.6736,224.049 43.5,219.5C 42.6299,217.374 41.6299,215.374 40.5,213.5C 41.8331,191.677 42.4997,169.51 42.5,147C 42.3333,124.833 42.1667,102.667 42,80.5C 41.7508,81.624 41.2508,82.624 40.5,83.5C 39.7025,83.0431 39.3691,82.3764 39.5,81.5C 46.4147,71.3932 54.0814,61.7266 62.5,52.5 Z"/></g>
<g><path style="opacity:0.051" fill="#844aff" d="M 270.5,55.5 C 271.117,55.6107 271.617,55.944 272,56.5C 272.5,85.8314 272.667,115.165 272.5,144.5C 271.861,149.92 270.194,154.92 267.5,159.5C 266.853,130.276 266.187,100.776 265.5,71C 268.13,68.6453 267.797,68.1453 264.5,69.5C 265.99,64.5293 267.99,59.8626 270.5,55.5 Z"/></g>
<g><path style="opacity:0.844" fill="#1d97fd" d="M 367.5,72.5 C 369.417,73.4056 371.083,74.7389 372.5,76.5C 377.542,83.5302 382.542,90.5302 387.5,97.5C 387.421,98.9305 387.754,100.264 388.5,101.5C 387.835,156.696 387.169,211.863 386.5,267C 387.527,267.513 388.527,268.013 389.5,268.5C 386.76,271.417 384.593,274.751 383,278.5C 375.186,286.471 368.353,295.137 362.5,304.5C 359.79,305.876 357.79,307.876 356.5,310.5C 354.821,285.144 353.821,259.477 353.5,233.5C 354.127,232.583 354.461,231.583 354.5,230.5C 356.482,227.513 358.482,224.513 360.5,221.5C 361.551,220.115 362.884,219.115 364.5,218.5C 365.334,214.333 367.667,211.333 371.5,209.5C 373.755,204.658 376.755,200.325 380.5,196.5C 383.167,188.5 383.167,180.5 380.5,172.5C 378.097,168.787 375.763,165.12 373.5,161.5C 371.119,159.119 368.785,156.785 366.5,154.5C 367.922,154.25 368.922,153.417 369.5,152C 368.17,127.196 368.17,102.363 369.5,77.5C 367.624,76.0098 366.957,74.3431 367.5,72.5 Z"/></g>
<g><path style="opacity:0.852" fill="#1c98fd" d="M 40.5,213.5 C 35.202,207.858 30.202,201.858 25.5,195.5C 25.9046,194.45 26.5712,194.45 27.5,195.5C 28.8333,164.5 28.8333,133.5 27.5,102.5C 26.7348,101.388 25.7348,100.721 24.5,100.5C 29.5306,94.1424 34.5306,87.8091 39.5,81.5C 39.3691,82.3764 39.7025,83.0431 40.5,83.5C 41.2508,82.624 41.7508,81.624 42,80.5C 42.1667,102.667 42.3333,124.833 42.5,147C 42.4997,169.51 41.8331,191.677 40.5,213.5 Z"/></g>
<g><path style="opacity:0.417" fill="#5273fe" d="M 223.5,157.5 C 219.941,163.731 217.274,170.397 215.5,177.5C 214.318,175.9 212.985,175.567 211.5,176.5C 210.176,148.797 210.176,121.13 211.5,93.5C 210.82,92.1401 210.153,90.8068 209.5,89.5C 212.891,81.7719 216.225,74.1052 219.5,66.5C 220.212,65.2613 221.212,64.7613 222.5,65C 221.837,80.094 221.504,95.2607 221.5,110.5C 221.53,126.318 222.197,141.985 223.5,157.5 Z"/></g>
<g><path style="opacity:0.166" fill="#7159ff" d="M 267.5,159.5 C 262.949,173.488 257.616,187.155 251.5,200.5C 249.023,199.88 249.023,198.88 251.5,197.5C 250.342,168.209 250.175,138.875 251,109.5C 251.311,107.444 251.811,105.444 252.5,103.5C 252.03,102.537 251.363,102.537 250.5,103.5C 254.192,91.6626 258.858,80.3293 264.5,69.5C 267.797,68.1453 268.13,68.6453 265.5,71C 266.187,100.776 266.853,130.276 267.5,159.5 Z"/></g>
<g><path style="opacity:0.901" fill="#149efd" d="M 24.5,100.5 C 25.7348,100.721 26.7348,101.388 27.5,102.5C 28.8333,133.5 28.8333,164.5 27.5,195.5C 26.5712,194.45 25.9046,194.45 25.5,195.5C 16.0265,185.335 8.02654,174.002 1.5,161.5C 0.832925,157.687 0.166258,154.021 -0.5,150.5C -0.5,148.5 -0.5,146.5 -0.5,144.5C 0.166258,140.979 0.832925,137.313 1.5,133.5C 3.86985,130.094 5.70318,126.427 7,122.5C 9.25927,118.57 12.2593,115.237 16,112.5C 17.2088,108.455 19.7088,105.455 23.5,103.5C 24.3857,102.675 24.719,101.675 24.5,100.5 Z"/></g>
<g><path style="opacity:0.313" fill="#6068ff" d="M 209.5,89.5 C 210.153,90.8068 210.82,92.1401 211.5,93.5C 210.176,121.13 210.176,148.797 211.5,176.5C 212.985,175.567 214.318,175.9 215.5,177.5C 209.623,190.937 203.623,204.27 197.5,217.5C 196.85,217.196 196.183,216.863 195.5,216.5C 194.333,189.173 194.167,161.839 195,134.5C 196.181,131.022 196.681,127.688 196.5,124.5C 197.64,120.202 198.806,115.869 200,111.5C 204.062,104.458 207.228,97.1246 209.5,89.5 Z"/></g>
<g><path style="opacity:0.917" fill="#159dfd" d="M 387.5,97.5 C 390.184,98.5043 391.684,100.504 392,103.5C 396.494,108.908 400.994,114.241 405.5,119.5C 404.17,162.069 404.17,204.736 405.5,247.5C 400.543,254.79 395.21,261.79 389.5,268.5C 388.527,268.013 387.527,267.513 386.5,267C 387.169,211.863 387.835,156.696 388.5,101.5C 387.754,100.264 387.421,98.9305 387.5,97.5 Z"/></g>
<g><path style="opacity:0.945" fill="#0fa1fd" d="M 405.5,119.5 C 407.807,122.169 409.807,125.169 411.5,128.5C 412.984,130.074 414.651,131.407 416.5,132.5C 417.675,137.01 420.342,140.344 424.5,142.5C 425.318,144.108 425.985,145.775 426.5,147.5C 434.245,153.908 439.578,161.908 442.5,171.5C 442.5,180.167 442.5,188.833 442.5,197.5C 440.656,202.849 437.99,207.849 434.5,212.5C 424.689,224.287 415.022,235.954 405.5,247.5C 404.17,204.736 404.17,162.069 405.5,119.5 Z"/></g>
<g><path style="opacity:0.3" fill="#6467ff" d="M 251.5,200.5 C 248.842,206.797 246.176,213.131 243.5,219.5C 242.71,218.391 242.21,217.058 242,215.5C 241.833,200.833 241.667,186.167 241.5,171.5C 241.531,156.074 242.198,140.741 243.5,125.5C 243.315,124.416 242.982,123.416 242.5,122.5C 242.343,121.127 242.51,119.793 243,118.5C 245.962,113.656 248.462,108.656 250.5,103.5C 251.363,102.537 252.03,102.537 252.5,103.5C 251.811,105.444 251.311,107.444 251,109.5C 250.175,138.875 250.342,168.209 251.5,197.5C 249.023,198.88 249.023,199.88 251.5,200.5 Z"/></g>
<g><path style="opacity:0.416" fill="#5670ff" d="M 242.5,122.5 C 242.982,123.416 243.315,124.416 243.5,125.5C 242.198,140.741 241.531,156.074 241.5,171.5C 241.667,186.167 241.833,200.833 242,215.5C 242.21,217.058 242.71,218.391 243.5,219.5C 239.796,228.23 236.13,236.897 232.5,245.5C 231.992,243.767 231.159,243.434 230,244.5C 229.203,213.849 229.369,183.515 230.5,153.5C 233.138,142.591 237.138,132.258 242.5,122.5 Z"/></g>
<g><path style="opacity:0.082" fill="#755aff" d="M 196.5,124.5 C 196.681,127.688 196.181,131.022 195,134.5C 194.167,161.839 194.333,189.173 195.5,216.5C 196.183,216.863 196.85,217.196 197.5,217.5C 192.531,231.293 187.197,244.96 181.5,258.5C 180.732,257.737 180.232,256.737 180,255.5C 179.667,227.5 179.333,199.5 179,171.5C 178.292,170.619 177.458,169.953 176.5,169.5C 181.671,156.316 187.005,143.149 192.5,130C 193.512,127.757 194.845,125.924 196.5,124.5 Z"/></g>
<g><path style="opacity:0.501" fill="#497afd" d="M 230.5,153.5 C 229.369,183.515 229.203,213.849 230,244.5C 231.159,243.434 231.992,243.767 232.5,245.5C 228.714,255.174 224.714,264.84 220.5,274.5C 218.673,245.184 217.839,215.517 218,185.5C 217.617,186.056 217.117,186.389 216.5,186.5C 219.59,177.107 222.923,167.774 226.5,158.5C 227.309,156.269 228.643,154.602 230.5,153.5 Z"/></g>
<g><path style="opacity:0.047" fill="#8552ff" d="M 176.5,169.5 C 177.458,169.953 178.292,170.619 179,171.5C 179.333,199.5 179.667,227.5 180,255.5C 180.232,256.737 180.732,257.737 181.5,258.5C 179.95,262.719 177.95,266.719 175.5,270.5C 174.883,270.611 174.383,270.944 174,271.5C 173.5,241.835 173.333,212.169 173.5,182.5C 173.364,177.838 174.364,173.505 176.5,169.5 Z"/></g>
<g><path style="opacity:0.004" fill="#0000ff" d="M 173.5,182.5 C 173.333,212.169 173.5,241.835 174,271.5C 174.383,270.944 174.883,270.611 175.5,270.5C 174.695,272.213 173.695,273.879 172.5,275.5C 172.167,260 171.833,244.5 171.5,229C 171.501,213.152 172.167,197.652 173.5,182.5 Z"/></g>
<g><path style="opacity:0.646" fill="#3388fd" d="M 69.5,169.5 C 74.3788,175.06 79.3788,180.726 84.5,186.5C 85.0149,188.225 85.6816,189.892 86.5,191.5C 90.6827,193.676 93.3494,197.01 94.5,201.5C 94.44,202.043 94.1067,202.376 93.5,202.5C 92.8333,201.5 92.1667,200.5 91.5,199.5C 90.3335,224.16 90.1668,248.827 91,273.5C 91.4652,274.931 92.2986,276.097 93.5,277C 92.7476,277.671 92.4142,278.504 92.5,279.5C 91.4168,279.461 90.4168,279.127 89.5,278.5C 82.4638,268.807 75.4638,259.14 68.5,249.5C 69.1395,236.197 69.4728,222.864 69.5,209.5C 69.4809,196.678 68.8142,184.011 67.5,171.5C 67.8555,170.478 68.5222,169.811 69.5,169.5 Z"/></g>
<g><path style="opacity:0.59" fill="#3d81fd" d="M 220.5,274.5 C 217.992,279.192 216.325,284.192 215.5,289.5C 214.417,289.539 213.417,289.873 212.5,290.5C 210.096,297.634 207.429,304.634 204.5,311.5C 204.253,312.713 203.586,313.38 202.5,313.5C 202.5,305.833 202.5,298.167 202.5,290.5C 204.167,290.5 205.833,290.5 207.5,290.5C 207.667,264.165 207.5,237.831 207,211.5C 206.617,210.944 206.117,210.611 205.5,210.5C 208.608,202.281 212.275,194.281 216.5,186.5C 217.117,186.389 217.617,186.056 218,185.5C 217.839,215.517 218.673,245.184 220.5,274.5 Z"/></g>
<g><path style="opacity:0.553" fill="#4080fd" d="M 94.5,201.5 C 96.4167,202.406 98.0834,203.739 99.5,205.5C 102.069,208.961 104.403,212.628 106.5,216.5C 109.007,218.068 111.007,220.068 112.5,222.5C 111.127,222.343 109.793,222.51 108.5,223C 109.471,224.204 110.471,224.704 111.5,224.5C 110.677,246.79 110.177,269.124 110,291.5C 108.955,292.373 108.122,293.373 107.5,294.5C 104.388,292.103 101.055,289.936 97.5,288C 95.3248,285.454 93.6581,282.621 92.5,279.5C 92.4142,278.504 92.7476,277.671 93.5,277C 92.2986,276.097 91.4652,274.931 91,273.5C 90.1668,248.827 90.3335,224.16 91.5,199.5C 92.1667,200.5 92.8333,201.5 93.5,202.5C 94.1067,202.376 94.44,202.043 94.5,201.5 Z"/></g>
<g><path style="opacity:0.506" fill="#4979fd" d="M 112.5,222.5 C 112.281,223.675 112.614,224.675 113.5,225.5C 117.157,229.459 120.824,233.459 124.5,237.5C 125.527,239.553 126.527,241.553 127.5,243.5C 126.668,259.995 126.168,276.662 126,293.5C 125.667,277.167 125.333,260.833 125,244.5C 124.667,261.5 124.333,278.5 124,295.5C 123.667,295.167 123.333,294.833 123,294.5C 120.393,295.123 117.893,295.79 115.5,296.5C 112.692,296.307 110.025,295.64 107.5,294.5C 108.122,293.373 108.955,292.373 110,291.5C 110.177,269.124 110.677,246.79 111.5,224.5C 110.471,224.704 109.471,224.204 108.5,223C 109.793,222.51 111.127,222.343 112.5,222.5 Z"/></g>
<g><path style="opacity:0.725" fill="#308afd" d="M 205.5,210.5 C 206.117,210.611 206.617,210.944 207,211.5C 207.5,237.831 207.667,264.165 207.5,290.5C 205.833,290.5 204.167,290.5 202.5,290.5C 202.5,298.167 202.5,305.833 202.5,313.5C 200.5,319.5 198.5,325.5 196.5,331.5C 194.833,331.5 193.167,331.5 191.5,331.5C 192,304.166 192.167,276.832 192,249.5C 191.23,250.598 190.397,250.598 189.5,249.5C 195.14,236.562 200.474,223.562 205.5,210.5 Z"/></g>
<g><path style="opacity:0.728" fill="#298ffc" d="M 354.5,230.5 C 354.461,231.583 354.127,232.583 353.5,233.5C 353.821,259.477 354.821,285.144 356.5,310.5C 354.193,313.169 352.193,316.169 350.5,319.5C 347.479,322.521 344.479,325.521 341.5,328.5C 340.791,327.596 339.791,327.263 338.5,327.5C 339.142,302.605 338.475,277.938 336.5,253.5C 338.561,251.673 339.894,249.34 340.5,246.5C 345.192,241.063 349.858,235.73 354.5,230.5 Z"/></g>
<g><path style="opacity:0.304" fill="#6167ff" d="M 151.5,252.5 C 157.167,252.5 162.833,252.5 168.5,252.5C 163.943,264.665 159.276,276.832 154.5,289C 154.164,290.03 153.497,290.53 152.5,290.5C 151.504,290.586 150.671,290.252 150,289.5C 149.333,277.833 149.333,266.167 150,254.5C 150.717,253.956 151.217,253.289 151.5,252.5 Z"/></g>
<g><path style="opacity:0.369" fill="#566ffe" d="M 127.5,243.5 C 130.762,246.077 134.095,248.744 137.5,251.5C 142.12,252.493 146.786,252.827 151.5,252.5C 151.217,253.289 150.717,253.956 150,254.5C 149.333,266.167 149.333,277.833 150,289.5C 150.671,290.252 151.504,290.586 152.5,290.5C 152.672,292.492 152.005,294.158 150.5,295.5C 138.852,296.499 127.186,296.832 115.5,296.5C 117.893,295.79 120.393,295.123 123,294.5C 123.333,294.833 123.667,295.167 124,295.5C 124.333,278.5 124.667,261.5 125,244.5C 125.333,260.833 125.667,277.167 126,293.5C 126.168,276.662 126.668,259.995 127.5,243.5 Z"/></g>
<g><path style="opacity:0.694" fill="#3189fd" d="M 336.5,253.5 C 338.475,277.938 339.142,302.605 338.5,327.5C 339.791,327.263 340.791,327.596 341.5,328.5C 339.216,329.029 337.216,330.029 335.5,331.5C 328.167,331.5 320.833,331.5 313.5,331.5C 314.1,315.661 313.433,299.995 311.5,284.5C 319.105,275.204 326.438,265.537 333.5,255.5C 334.265,254.388 335.265,253.721 336.5,253.5 Z"/></g>
<g><path style="opacity:0.813" fill="#2492fc" d="M 189.5,249.5 C 190.397,250.598 191.23,250.598 192,249.5C 192.167,276.832 192,304.166 191.5,331.5C 187.5,331.5 183.5,331.5 179.5,331.5C 179.18,314.139 179.68,296.805 181,279.5C 181.83,292.809 182.33,292.809 182.5,279.5C 182.498,275.982 182.165,272.649 181.5,269.5C 184.147,262.865 186.814,256.198 189.5,249.5 Z"/></g>
<g><path style="opacity:0.513" fill="#4879fd" d="M 272.5,289.5 C 277.833,289.5 283.167,289.5 288.5,289.5C 288.5,303.5 288.5,317.5 288.5,331.5C 281.833,331.5 275.167,331.5 268.5,331.5C 268.5,317.833 268.5,304.167 268.5,290.5C 270.099,290.768 271.432,290.434 272.5,289.5 Z"/></g>
<g><path style="opacity:0.594" fill="#3d81fd" d="M 311.5,284.5 C 313.433,299.995 314.1,315.661 313.5,331.5C 305.167,331.5 296.833,331.5 288.5,331.5C 288.5,317.5 288.5,303.5 288.5,289.5C 296.818,290.226 304.485,288.559 311.5,284.5 Z"/></g>
<g><path style="opacity:0.441" fill="#5471fe" d="M 237.5,289.5 C 249.167,289.5 260.833,289.5 272.5,289.5C 271.432,290.434 270.099,290.768 268.5,290.5C 268.5,304.167 268.5,317.833 268.5,331.5C 259.167,331.5 249.833,331.5 240.5,331.5C 240.5,317.833 240.5,304.167 240.5,290.5C 239.209,290.737 238.209,290.404 237.5,289.5 Z"/></g>
<g><path style="opacity:0.88" fill="#179bfd" d="M 181.5,269.5 C 182.165,272.649 182.498,275.982 182.5,279.5C 182.33,292.809 181.83,292.809 181,279.5C 179.68,296.805 179.18,314.139 179.5,331.5C 171.833,331.5 164.167,331.5 156.5,331.5C 156.201,329.396 156.534,327.396 157.5,325.5C 165.73,306.925 173.73,288.259 181.5,269.5 Z"/></g>
<g><path style="opacity:0.178" fill="#6961fe" d="M 215.5,289.5 C 222.833,289.5 230.167,289.5 237.5,289.5C 238.209,290.404 239.209,290.737 240.5,290.5C 240.5,304.167 240.5,317.833 240.5,331.5C 225.833,331.5 211.167,331.5 196.5,331.5C 198.5,325.5 200.5,319.5 202.5,313.5C 203.586,313.38 204.253,312.713 204.5,311.5C 207.429,304.634 210.096,297.634 212.5,290.5C 213.417,289.873 214.417,289.539 215.5,289.5 Z"/></g>
</svg>
